<svg xmlns="http://www.w3.org/2000/svg" viewBox="0 0 1626.84 1625.69"><defs><style>.cls-1,.cls-3{fill:#fff;}.cls-2{fill:#9a1d20;}.cls-3{stroke:#231f20;stroke-miterlimit:10;}</style></defs><title>ExitIcon</title><g id="BotRight"><polyline class="cls-1" points="297.76 548.9 297.76 45 1581.84 45 1581.84 1580.69 297.76 1580.69 297.76 1082.79"/><path class="cls-2" d="M556.23,751.19V247.29l-45,45H1795.31l-45-45V1783l45-45H511.23l45,45v-497.9c0-24.53-20.47-45-45-45s-45,20.47-45,45V1783c0,24.53,20.47,45,45,45H1795.31c24.53,0,45-20.47,45-45V247.29c0-24.53-20.47-45-45-45H511.23c-24.53,0-45,20.47-45,45v503.9c0,24.53,20.47,45,45,45s45-20.47,45-45Z" transform="translate(-213.47 -202.29)"/><polygon class="cls-1" points="45 692.87 939.63 692.87 939.63 434.92 1317.56 821.71 933.63 1202.77 939.63 944.82 45 944.82 45 692.87"/><path class="cls-2" d="M258.47,940.16h894.64c24.53,0,45-20.47,45-45V637.21L1121.29,669l88.13,90.2L1380.67,934.5l114.68,117.37c1.29,1.31,2.57,2.63,3.86,4V992.18L1409.68,1081l-174,172.68-116.5,115.62-3.92,3.89,76.82,31.82,4.35-187.28,1.65-70.66c.57-24.53-20.91-45-45-45H258.47l45,45V895.16c0-24.53-20.47-45-45-45s-45,20.47-45,45v251.95c0,24.53,20.47,45,45,45h894.64l-45-45q-2.19,93.63-4.36,187.28-.82,35.34-1.64,70.66c-.37,15.76,8.85,31,22.28,38.86a45.44,45.44,0,0,0,54.54-7l89.53-88.87,174-172.67,116.5-115.63,3.92-3.89c17.55-17.42,17.08-46.15,0-63.64L1474.72,902,1303.46,726.71Q1246.13,668,1188.79,609.34c-1.29-1.32-2.58-2.63-3.86-4-27.58-28.22-76.82-7.1-76.82,31.82V895.16l45-45H258.47c-24.53,0-45,20.47-45,45S233.94,940.16,258.47,940.16Z" transform="translate(-213.47 -202.29)"/><path class="cls-3" d="M258.47,895.16" transform="translate(-213.47 -202.29)"/></g></svg>