<svg xmlns="http://www.w3.org/2000/svg" viewBox="0 0 1626.84 1621.41"><defs><style>.cls-1,.cls-4{fill:#fff;}.cls-2{fill:#9a1d20;}.cls-3{fill:#231f20;}.cls-4{stroke:#231f20;stroke-miterlimit:10;}</style></defs><title>HomeIcon</title><g id="TopLeft"><polygon class="cls-1" points="817.05 44.83 45 813.51 45 1576.41 817.05 1576.41 817.05 1071.14 1071.32 1071.14 1071.32 1576.41 1581.84 1576.41 1581.84 813.51 817.05 44.83"/><path class="cls-2" d="M992.18,223.5,920.6,294.77l-173.72,173L532.54,681.13,339.13,873.69l-111,110.48-7.65,7.61c-10.09,10.06-13.57,23.06-13.57,36.58V1786.9c0,24.53,20.47,45,45,45H1024c24.53,0,45-20.47,45-45V1281.63l-45,45h254.26l-45-45V1786.9c0,24.53,20.47,45,45,45h510.53c24.53,0,45-20.47,45-45V1032c0-14.64-1.63-28.22-13.19-39.84l-5.34-5.37-104-104.48-189.73-190.7L1307.88,476.84,1132.06,300.13l-76.14-76.53a.94.94,0,0,0-.1-.1c-17.29-17.38-46.34-17.31-63.64,0s-17.29,46.26,0,63.64L1063.71,359l173.38,174.26,213.4,214.49,191.62,192.59,108,108.56,6.86,6.89q-6.59-15.91-13.18-31.82v762.9l45-45H1278.26l45,45V1281.63c0-24.53-20.47-45-45-45H1024c-24.53,0-45,20.47-45,45V1786.9l45-45H252l45,45V1024q-6.6,15.91-13.18,31.82l71.58-71.27,173.72-173L743.4,598.19,936.81,405.62l111-110.47,8-8c17.38-17.3,17.31-46.33,0-63.64S1009.55,206.2,992.18,223.5Z" transform="translate(-206.95 -210.49)"/><path class="cls-1" d="M1024,255.32" transform="translate(-206.95 -210.49)"/><path class="cls-3" d="M1024,262.82c9.67,0,9.67-15,0-15s-9.67,15,0,15Z" transform="translate(-206.95 -210.49)"/><rect class="cls-1" x="308.16" y="1076.41" width="263.16" height="247.37"/><path class="cls-2" d="M515.11,1579.26H778.26c24.53,0,45-20.47,45-45V1286.9c0-24.53-20.47-45-45-45H515.11c-24.53,0-45,20.47-45,45v247.36c0,24.53,20.47,45,45,45s45-20.47,45-45V1286.9l-45,45H778.26l-45-45v247.36l45-45H515.11c-24.53,0-45,20.47-45,45S490.58,1579.26,515.11,1579.26Z" transform="translate(-206.95 -210.49)"/><path class="cls-4" d="M515.11,1534.26" transform="translate(-206.95 -210.49)"/><polygon class="cls-1" points="308.16 551.5 308.16 171.14 571.32 171.14 571.32 289.49 308.16 551.5"/><path class="cls-2" d="M560.11,762V381.63l-45,45H778.26l-45-45V500q6.6-15.9,13.18-31.82L669.26,545l-134.63,134-51.34,51.12c-17.38,17.3-17.31,46.33,0,63.64s46.26,17.3,63.64,0L624.11,717l134.62-134,43.41-43.22,7.78-7.75c13.88-13.81,13.34-29.48,13.34-46.53V381.63c0-24.53-20.47-45-45-45H515.11c-24.53,0-45,20.47-45,45V762c0,24.53,20.47,45,45,45S560.11,786.52,560.11,762Z" transform="translate(-206.95 -210.49)"/><path class="cls-4" d="M515.11,762" transform="translate(-206.95 -210.49)"/></g></svg>